<svg xmlns="http://www.w3.org/2000/svg" viewBox="0 0 900 620" fill="none"><defs><pattern id="g" width="24" height="24" patternUnits="userSpaceOnUse"><path d="M24 0H0V24" stroke="#dfe4e5" stroke-width="1"/></pattern></defs><path fill="#f4f5f2" d="M0 0h900v620H0z"/><path fill="url(#g)" d="M0 0h900v620H0z"/><g stroke="#527487" stroke-width="3" stroke-linejoin="round"><path d="m205 340 174-101 177 101-176 103z" fill="#e8eeec"/><path d="m205 340 175 102v-91l-175-102z" fill="#f7f8f5"/><path d="m380 442 176-102v-91L380 351z" fill="#dce6e5"/><ellipse cx="380" cy="340" rx="44" ry="25" fill="#f4f5f2"/><ellipse cx="380" cy="340" rx="19" ry="11"/><path d="m379 239 48-28 88 51-47 27v58l-88-51z" fill="#eef1ee"/><path d="m468 289 47-27v59l-47 27z" fill="#d7e1e1"/><path d="M240 359v34m279-34v34m-235 26v27" stroke-width="1.5" stroke-dasharray="5 6"/><path d="M606 233v156m-8-156h16m-16 156h16M203 480h355m-355-8v16m355-16v16" stroke-width="1.5"/></g><g fill="#405b69" font-family="monospace" font-size="13"><text x="602" y="217">ISOMETRIC STUDY</text><text x="342" y="526">MECHANICAL COMPONENTS</text><text x="640" y="575">CAD PLACEHOLDER</text></g><path stroke="#9aadb2" d="M28 30h44m-44 0v44m844-44h-44m44 0v44M28 590h44m-44 0v-44m844 44h-44m44 0v-44"/></svg>